<mxfile host="app.diagrams.net" modified="2023-06-02T17:43:03.984Z" agent="Mozilla/5.0 (Windows NT 10.0; Win64; x64) AppleWebKit/537.36 (KHTML, like Gecko) Chrome/114.0.0.0 Safari/537.36" etag="7fp1FNNY3UNA3PdU2hoa" version="21.3.7" type="github">
  <diagram name="Page-1" id="2YBvvXClWsGukQMizWep">
    <mxGraphModel dx="880" dy="494" grid="1" gridSize="10" guides="1" tooltips="1" connect="1" arrows="1" fold="1" page="1" pageScale="1" pageWidth="850" pageHeight="1100" math="0" shadow="0">
      <root>
        <mxCell id="0" />
        <mxCell id="1" parent="0" />
        <mxCell id="qBowqUYz1JWv7bsAs-2Q-10" style="edgeStyle=orthogonalEdgeStyle;rounded=0;orthogonalLoop=1;jettySize=auto;html=1;" edge="1" parent="1" source="qBowqUYz1JWv7bsAs-2Q-1" target="qBowqUYz1JWv7bsAs-2Q-2">
          <mxGeometry relative="1" as="geometry">
            <Array as="points">
              <mxPoint x="215" y="110" />
              <mxPoint x="215" y="55" />
            </Array>
          </mxGeometry>
        </mxCell>
        <mxCell id="qBowqUYz1JWv7bsAs-2Q-11" style="edgeStyle=orthogonalEdgeStyle;rounded=0;orthogonalLoop=1;jettySize=auto;html=1;exitX=1;exitY=0.5;exitDx=0;exitDy=0;entryX=0;entryY=0.62;entryDx=0;entryDy=0;entryPerimeter=0;" edge="1" parent="1" source="qBowqUYz1JWv7bsAs-2Q-1" target="qBowqUYz1JWv7bsAs-2Q-3">
          <mxGeometry relative="1" as="geometry" />
        </mxCell>
        <mxCell id="qBowqUYz1JWv7bsAs-2Q-1" value="grid.js" style="shape=parallelogram;html=1;strokeWidth=2;perimeter=parallelogramPerimeter;whiteSpace=wrap;rounded=1;arcSize=12;size=0.23;" vertex="1" parent="1">
          <mxGeometry x="50" y="80" width="100" height="60" as="geometry" />
        </mxCell>
        <mxCell id="qBowqUYz1JWv7bsAs-2Q-2" value="row address" style="rounded=0;whiteSpace=wrap;html=1;" vertex="1" parent="1">
          <mxGeometry x="280" y="30" width="80" height="50" as="geometry" />
        </mxCell>
        <mxCell id="qBowqUYz1JWv7bsAs-2Q-3" value="col address" style="rounded=0;whiteSpace=wrap;html=1;verticalAlign=top;" vertex="1" parent="1">
          <mxGeometry x="250" y="120" width="150" height="100" as="geometry" />
        </mxCell>
        <mxCell id="qBowqUYz1JWv7bsAs-2Q-4" value="cells container" style="rounded=0;whiteSpace=wrap;html=1;verticalAlign=top;" vertex="1" parent="1">
          <mxGeometry x="265" y="150" width="120" height="65" as="geometry" />
        </mxCell>
        <mxCell id="qBowqUYz1JWv7bsAs-2Q-6" value="" style="rounded=0;whiteSpace=wrap;html=1;" vertex="1" parent="1">
          <mxGeometry x="280" y="310" width="80" height="50" as="geometry" />
        </mxCell>
        <mxCell id="qBowqUYz1JWv7bsAs-2Q-7" value="cell props" style="rounded=0;whiteSpace=wrap;html=1;" vertex="1" parent="1">
          <mxGeometry x="287.5" y="180" width="75" height="30" as="geometry" />
        </mxCell>
        <mxCell id="qBowqUYz1JWv7bsAs-2Q-12" value="&lt;br&gt;&lt;span style=&quot;color: rgb(0, 0, 0); font-family: Helvetica; font-size: 12px; font-style: normal; font-variant-ligatures: normal; font-variant-caps: normal; font-weight: 400; letter-spacing: normal; orphans: 2; text-align: center; text-indent: 0px; text-transform: none; widows: 2; word-spacing: 0px; -webkit-text-stroke-width: 0px; background-color: rgb(251, 251, 251); text-decoration-thickness: initial; text-decoration-style: initial; text-decoration-color: initial; float: none; display: inline !important;&quot;&gt;cellProperties.js&lt;br&gt;&lt;/span&gt;&lt;br&gt;" style="shape=parallelogram;html=1;strokeWidth=2;perimeter=parallelogramPerimeter;whiteSpace=wrap;rounded=1;arcSize=12;size=0.23;" vertex="1" parent="1">
          <mxGeometry x="40" y="230" width="120" height="80" as="geometry" />
        </mxCell>
        <mxCell id="qBowqUYz1JWv7bsAs-2Q-13" value="formula.js&lt;br&gt;" style="shape=parallelogram;html=1;strokeWidth=2;perimeter=parallelogramPerimeter;whiteSpace=wrap;rounded=1;arcSize=12;size=0.23;" vertex="1" parent="1">
          <mxGeometry x="30" y="380" width="100" height="60" as="geometry" />
        </mxCell>
      </root>
    </mxGraphModel>
  </diagram>
</mxfile>
